<svg xmlns="http://www.w3.org/2000/svg" viewBox="0 0 420 240" width="420" height="240">
  <rect width="420" height="240" fill="#FFFBF0"/>
  <ellipse cx="210" cy="260" rx="300" ry="70" fill="#EAF6F2" opacity="0.4"/>
  <!-- Parent sitting, child standing beside -->
  <circle cx="160" cy="100" r="20" fill="#2BAEB4"/>
  <path d="M132,200 C132,150 144,128 160,128 C176,128 188,150 188,200" fill="#2BAEB4"/>
  <circle cx="240" cy="115" r="14" fill="#FFD866"/>
  <path d="M224,200 C224,165 231,152 240,152 C249,152 256,165 256,200" fill="#FFD866"/>
  <!-- Hand holding -->
  <path d="M185,160 Q205,150 222,155" stroke="#FFB5A0" stroke-width="2.5" fill="none" stroke-linecap="round"/>
  <!-- Smile arcs -->
  <path d="M152,105 Q160,112 168,105" stroke="#FFF" stroke-width="1.5" fill="none" stroke-linecap="round"/>
  <path d="M234,120 Q240,126 246,120" stroke="#FFF" stroke-width="1.5" fill="none" stroke-linecap="round"/>
  <!-- Decorative -->
  <circle cx="70" cy="50" r="8" fill="#5DD07A" opacity="0.2"/>
  <circle cx="350" cy="60" r="6" fill="#FFD866" opacity="0.3"/>
</svg>