<svg xmlns="http://www.w3.org/2000/svg" viewBox="0 0 420 240" width="420" height="240">
  <defs>
    <linearGradient id="playBg" x1="0%" y1="0%" x2="0%" y2="100%">
      <stop offset="0%" stop-color="#FFF6E2"/><stop offset="100%" stop-color="#FFFBF0"/>
    </linearGradient>
  </defs>
  <rect width="420" height="240" fill="url(#playBg)"/>
  <!-- Floor/play area -->
  <rect x="40" y="180" width="340" height="60" rx="12" fill="#EAF6F2" opacity="0.5"/>
  <!-- Child playing (active pose) -->
  <circle cx="210" cy="100" r="18" fill="#5DD07A"/>
  <path d="M188,180 C188,145 198,128 210,128 C222,128 232,145 232,180" fill="#5DD07A"/>
  <!-- Arms up (playful) -->
  <line x1="195" y1="145" x2="175" y2="120" stroke="#5DD07A" stroke-width="3" stroke-linecap="round"/>
  <line x1="225" y1="145" x2="245" y2="120" stroke="#5DD07A" stroke-width="3" stroke-linecap="round"/>
  <!-- Building blocks scattered -->
  <rect x="120" y="165" width="18" height="18" rx="3" fill="#FFD866" opacity="0.7" transform="rotate(8 129 174)"/>
  <rect x="145" y="170" width="14" height="14" rx="3" fill="#2BAEB4" opacity="0.6" transform="rotate(-5 152 177)"/>
  <rect x="260" y="168" width="16" height="16" rx="3" fill="#FFB5A0" opacity="0.6" transform="rotate(12 268 176)"/>
  <rect x="280" y="172" width="12" height="12" rx="3" fill="#5DD07A" opacity="0.5" transform="rotate(-8 286 178)"/>
  <!-- Soft circles -->
  <circle cx="80" cy="60" r="12" fill="#2BAEB4" opacity="0.15"/>
  <circle cx="350" cy="50" r="8" fill="#FFD866" opacity="0.3"/>
  <circle cx="310" cy="80" r="6" fill="#FFB5A0" opacity="0.3"/>
</svg>