<svg xmlns="http://www.w3.org/2000/svg" viewBox="0 0 420 240" width="420" height="240">
  <defs>
    <linearGradient id="bg2" x1="0%" y1="0%" x2="100%" y2="100%">
      <stop offset="0%" stop-color="#FFFBF0"/><stop offset="100%" stop-color="#EAF6F2"/>
    </linearGradient>
  </defs>
  <rect width="420" height="240" fill="url(#bg2)"/>
  <ellipse cx="210" cy="260" rx="300" ry="80" fill="#D4F0E4" opacity="0.5"/>
  <!-- Three figures: parent + two children -->
  <circle cx="140" cy="95" r="20" fill="#2BAEB4"/>
  <path d="M112,200 C112,148 125,128 140,128 C155,128 168,148 168,200" fill="#2BAEB4"/>
  <circle cx="210" cy="115" r="14" fill="#5DD07A"/>
  <path d="M194,200 C194,165 201,152 210,152 C219,152 226,165 226,200" fill="#5DD07A"/>
  <circle cx="270" cy="110" r="16" fill="#FFD866"/>
  <path d="M252,200 C252,162 260,148 270,148 C280,148 288,162 288,200" fill="#FFD866"/>
  <!-- Connection lines -->
  <path d="M160,145 Q185,130 196,140" stroke="#FFB5A0" stroke-width="2" fill="none" stroke-linecap="round"/>
  <path d="M224,140 Q245,130 254,138" stroke="#FFB5A0" stroke-width="2" fill="none" stroke-linecap="round"/>
  <!-- Floating elements -->
  <circle cx="60" cy="50" r="7" fill="#FFD866" opacity="0.4"/>
  <circle cx="360" cy="40" r="9" fill="#2BAEB4" opacity="0.3"/>
  <rect x="330" y="160" width="10" height="10" rx="2" fill="#5DD07A" opacity="0.35" transform="rotate(-10 335 165)"/>
  <path d="M0,200 Q210,188 420,200" stroke="#2BAEB4" stroke-width="1" fill="none" opacity="0.25"/>
</svg>